<svg width="118" height="48" viewBox="0 0 118 48" fill="none" xmlns="http://www.w3.org/2000/svg">
<path d="M0.64 47V42.842L17.272 26.078C22.024 21.326 24.4 17.256 24.4 13.868C24.4 10.92 23.476 8.632 21.628 7.004C19.824 5.332 17.646 4.496 15.094 4.496C10.342 4.496 6.888 6.674 4.732 11.03L0.838 8.72C2.29 5.86 4.27 3.704 6.778 2.252C9.286 0.755999 12.058 0.00799918 15.094 0.00799918C18.79 0.00799918 22.024 1.262 24.796 3.77C27.612 6.234 29.02 9.6 29.02 13.868C29.02 16.552 28.272 19.126 26.776 21.59C25.28 24.054 23.168 26.65 20.44 29.378L7.24 42.512H30.01V47H0.64ZM50.6036 19.412C54.9156 19.412 58.5676 20.688 61.5596 23.24C64.5956 25.748 66.1136 29.202 66.1136 33.602C66.1136 38.002 64.5956 41.478 61.5596 44.03C58.5676 46.538 54.9156 47.792 50.6036 47.792C47.1276 47.792 44.0256 46.956 41.2976 45.284C38.5696 43.568 36.7216 41.126 35.7536 37.958L39.6476 35.714C40.3076 38.178 41.6056 40.07 43.5416 41.39C45.5216 42.666 47.8756 43.304 50.6036 43.304C53.7716 43.304 56.3676 42.468 58.3916 40.796C60.4596 39.08 61.4936 36.682 61.4936 33.602C61.4936 30.522 60.4596 28.146 58.3916 26.474C56.3676 24.758 53.7716 23.9 50.6036 23.9H38.0636L39.7136 0.799997H64.4636V5.156H43.8056L42.8156 19.412H50.6036ZM84.0662 32V47H80.8262V35.12H75.8162V40.7C75.8162 43.08 75.2962 44.77 74.2562 45.77C73.2162 46.77 71.7362 47.18 69.8162 47V43.97C70.7362 44.13 71.4262 43.94 71.8862 43.4C72.3462 42.86 72.5762 41.91 72.5762 40.55V32H84.0662ZM91.1518 40.88C91.3918 42.02 91.9418 42.9 92.8018 43.52C93.6618 44.12 94.7118 44.42 95.9518 44.42C97.6718 44.42 98.9618 43.8 99.8218 42.56L102.492 44.12C101.012 46.3 98.8218 47.39 95.9218 47.39C93.4818 47.39 91.5118 46.65 90.0118 45.17C88.5118 43.67 87.7618 41.78 87.7618 39.5C87.7618 37.26 88.5018 35.39 89.9818 33.89C91.4618 32.37 93.3618 31.61 95.6818 31.61C97.8818 31.61 99.6818 32.38 101.082 33.92C102.502 35.46 103.212 37.33 103.212 39.53C103.212 39.87 103.172 40.32 103.092 40.88H91.1518ZM91.1218 38.24H99.9418C99.7218 37.02 99.2118 36.1 98.4118 35.48C97.6318 34.86 96.7118 34.55 95.6518 34.55C94.4518 34.55 93.4518 34.88 92.6518 35.54C91.8518 36.2 91.3418 37.1 91.1218 38.24ZM117.697 32V35.12H112.807V47H109.567V35.12H104.647V32H117.697Z" fill="#F84419"/>
</svg>
