<svg width="16" height="22" viewBox="0 0 16 22" fill="none" xmlns="http://www.w3.org/2000/svg">
<path fill-rule="evenodd" clip-rule="evenodd" d="M0 7.96753C0 3.57423 3.58878 0 8 0C12.4112 0 15.9999 3.57423 16 7.96753C16 13.4198 8.84078 21.4239 8.53597 21.762C8.25019 22.079 7.75033 22.0796 7.46403 21.762C7.15922 21.4239 0 13.4198 0 7.96753ZM4 6.99998C4 9.2056 5.79438 11 8.00002 11C10.2056 11 12 9.20564 12 7.00002C12 4.7944 10.2056 3 8.00002 3C5.79442 3 4 4.79436 4 6.99998Z" fill="white"/>
</svg>
