<svg width="69" height="85" viewBox="0 0 69 85" fill="none" xmlns="http://www.w3.org/2000/svg">
<path d="M17.6906 17.5715C16.9674 17.5715 16.381 18.2111 16.381 19.0002C16.381 20.7332 15.0886 22.1431 13.5 22.1431C11.9114 22.1431 10.619 20.7332 10.619 19.0002C10.619 17.2672 11.9114 15.8573 13.5 15.8573C14.2232 15.8573 14.8096 15.2177 14.8096 14.4286C14.8096 13.6396 14.2233 13 13.5 13C10.4672 13 8 15.6917 8 19C8 22.3083 10.4674 25 13.5 25C16.5326 25 19 22.3083 19 19C19.0002 18.2111 18.4137 17.5715 17.6906 17.5715Z" fill="#F84419"/>
<path d="M17.6906 32.5715C16.9674 32.5715 16.381 33.2111 16.381 34.0002C16.381 35.7332 15.0886 37.1431 13.5 37.1431C11.9114 37.1431 10.619 35.7332 10.619 34.0002C10.619 32.2672 11.9114 30.8573 13.5 30.8573C14.2232 30.8573 14.8096 30.2177 14.8096 29.4286C14.8096 28.6396 14.2233 28 13.5 28C10.4672 28 8 30.6917 8 34C8 37.3083 10.4674 40 13.5 40C16.5326 40 19 37.3083 19 34C19.0002 33.2113 18.4137 32.5715 17.6906 32.5715Z" fill="#F84419"/>
<path d="M33.7324 36H24.2676C23.5676 36 23 36.6715 23 37.5C23 38.3285 23.5675 39 24.2676 39H33.7324C34.4324 39 35 38.3285 35 37.5C35 36.6715 34.4325 36 33.7324 36Z" fill="#F84419"/>
<path d="M33.7324 29H24.2676C23.5676 29 23 29.6715 23 30.5C23 31.3285 23.5675 32 24.2676 32H33.7324C34.4324 32 35 31.3285 35 30.5C35 29.6715 34.4325 29 33.7324 29Z" fill="#F84419"/>
<path d="M31.6363 51H24.3637C23.6106 51 23 51.6715 23 52.5C23 53.3285 23.6105 54 24.3637 54H31.6363C32.3894 54 33 53.3285 33 52.5C33 51.6715 32.3894 51 31.6363 51Z" fill="#F84419"/>
<path d="M33.7324 45H24.2676C23.5676 45 23 45.6715 23 46.5C23 47.3285 23.5675 48 24.2676 48H33.7324C34.4324 48 35 47.3285 35 46.5C35 45.6715 34.4325 45 33.7324 45Z" fill="#F84419"/>
<path d="M46.6365 20H23.3637C22.6107 20 22 20.6715 22 21.5C22 22.3285 22.6105 23 23.3637 23H46.6363C47.3893 23 48 22.3285 48 21.5C48 20.6715 47.3895 20 46.6365 20Z" fill="#F84419"/>
<path d="M40.7162 14H24.2838C23.5749 14 23 14.6715 23 15.5C23 16.3285 23.5747 17 24.2838 17H40.7162C41.4251 17 42 16.3285 42 15.5C42 14.6715 41.4253 14 40.7162 14Z" fill="#F84419"/>
<path d="M17.6906 48.5715C16.9674 48.5715 16.381 49.2111 16.381 50.0002C16.381 51.7332 15.0886 53.1431 13.5 53.1431C11.9114 53.1431 10.619 51.7332 10.619 50.0002C10.619 48.2672 11.9114 46.8573 13.5 46.8573C14.2232 46.8573 14.8096 46.2177 14.8096 45.4286C14.8096 44.6396 14.2233 44 13.5 44C10.4672 44 8 46.6917 8 50C8 53.3083 10.4674 56 13.5 56C16.5326 56 19 53.3083 19 50C19.0002 49.2111 18.4137 48.5715 17.6906 48.5715Z" fill="#F84419"/>
<path d="M52.8008 0H4.19905C1.8838 0 0 1.87164 0 4.17233V63.8277C0 66.1284 1.88363 68 4.19905 68H28.5C29.24 68 29.8402 67.4039 29.8402 66.6684C29.8402 65.933 29.2402 65.3367 28.5 65.3367H4.19905C3.36155 65.3367 2.68018 64.6597 2.68018 63.8275V4.17233C2.68018 3.34015 3.36155 2.66312 4.19905 2.66312H52.8008C53.6383 2.66312 54.3197 3.34015 54.3197 4.17233V48.2039C54.3197 48.9393 54.9196 49.5356 55.6598 49.5356C56.3999 49.5356 57 48.9394 57 48.2039V4.17233C56.9998 1.87164 55.1162 0 52.8008 0Z" fill="#F84419"/>
<path fill-rule="evenodd" clip-rule="evenodd" d="M61.259 55.0427C62.226 54.3023 63.4478 53.9529 64.6702 54.0758C67.0983 54.321 69.0002 56.5349 69 59.1165V73.77C69 79.9623 64.0043 85 57.8639 85H46.0006C40.8076 85 36.35 81.4398 35.1607 76.3421L32.2253 63.7617C31.5597 60.9093 32.3891 57.9695 34.4437 55.8976L38.3101 51.9986V35.0646C38.3101 32.4834 40.212 30.2695 42.64 30.0243C44.001 29.887 45.3596 30.336 46.3678 31.2559C47.377 32.1767 47.9555 33.4913 47.9555 34.8628V51.754C48.7747 51.3336 49.7069 51.1523 50.6405 51.2463C52.1602 51.3998 53.4738 52.3245 54.2441 53.6279C55.2109 52.8877 56.4326 52.5383 57.6554 52.661C59.1751 52.8146 60.4887 53.7393 61.259 55.0427ZM57.864 82.3468C62.5539 82.3468 66.3695 78.499 66.3695 73.7696H66.3703V59.1156C66.3703 57.8805 65.5086 56.8259 64.4087 56.715C63.7765 56.6507 63.1729 56.8499 62.708 57.2739C62.2489 57.6927 61.9859 58.2905 61.9859 58.9139V61.0361C61.9859 61.7687 61.3969 62.3626 60.6706 62.3626C59.9441 62.3626 59.3552 61.7686 59.3552 61.0361V57.701C59.3552 56.4659 58.4935 55.4113 57.3936 55.3003C56.762 55.2362 56.1579 55.4351 55.6929 55.8593C55.2338 56.2781 54.9708 56.8759 54.9708 57.4993V59.6215C54.9708 60.3541 54.3818 60.9479 53.6555 60.9479C52.929 60.9479 52.3402 60.354 52.3402 59.6215V56.2865C52.3402 55.0514 51.4785 53.9968 50.3786 53.8858C49.7468 53.8216 49.1428 54.0207 48.6779 54.4449C48.2188 54.8636 47.9558 55.4614 47.9558 56.0848V58.2071C47.9558 58.9397 47.367 59.5335 46.6405 59.5335C45.914 59.5335 45.3251 58.9395 45.3251 58.2071V34.8629C45.3251 34.2395 45.062 33.6417 44.6031 33.2229C44.1384 32.7987 43.5342 32.5998 42.9023 32.6639C41.8023 32.7747 40.9407 33.8293 40.9407 35.0644V60.329C40.9407 61.0616 40.3519 61.6554 39.6254 61.6554C38.8989 61.6554 38.3101 61.0614 38.3101 60.329V55.7496L36.3037 57.7729C34.898 59.1905 34.3304 61.2021 34.7859 63.1536L37.7212 75.734C38.6297 79.6276 42.0344 82.3468 46.0008 82.3468H57.864Z" fill="#F84419"/>
</svg>
