<svg width="14" height="27" viewBox="0 0 14 27" fill="none" xmlns="http://www.w3.org/2000/svg">
<path d="M0.427258 13.8974H3.33099V25.6727C3.33099 25.9051 3.52223 26.0935 3.75825 26.0935H8.68163C8.91764 26.0935 9.10888 25.9051 9.10888 25.6727V13.9529H12.447C12.664 13.9529 12.8466 13.7924 12.8714 13.5801L13.3784 9.24502C13.3923 9.12575 13.354 9.00631 13.2729 8.91683C13.1918 8.82727 13.0758 8.77601 12.954 8.77601H9.10906V6.05858C9.10906 5.23941 9.55682 4.82402 10.4401 4.82402C10.5659 4.82402 12.954 4.82402 12.954 4.82402C13.1901 4.82402 13.3813 4.63556 13.3813 4.40316V0.423978C13.3813 0.191493 13.1901 0.00311439 12.954 0.00311439H9.4894C9.46496 0.00193597 9.4107 0 9.33072 0C8.72957 0 6.64002 0.116242 4.98943 1.61199C3.1606 3.26952 3.41482 5.25414 3.47557 5.59824V8.77593H0.427258C0.191241 8.77593 0 8.9643 0 9.19679V13.4765C0 13.7089 0.191241 13.8974 0.427258 13.8974Z" fill="white"/>
</svg>
