<svg width="134" height="44" viewBox="0 0 134 44" fill="none" xmlns="http://www.w3.org/2000/svg">
<path d="M53.5505 10.3847C54.2876 10.3847 54.9632 10.4592 55.5775 10.6081C56.1918 10.7572 56.6656 10.9018 56.9991 11.042L56.2356 14.1705C55.8846 14.0128 55.5029 13.8945 55.0905 13.8156C54.6781 13.7366 54.2963 13.6972 53.9453 13.6972C53.4715 13.6972 53.0723 13.763 52.7475 13.8945C52.4228 14.0259 52.1684 14.2056 51.9841 14.4334C51.7999 14.6613 51.6682 14.9329 51.5892 15.2484C51.5103 15.5639 51.4708 15.9056 51.4708 16.2737V16.9572H56.3146V20.2172H51.4708V30.7859H47.5483V16.2211C47.5483 14.4334 48.0528 13.0138 49.0621 11.9621C50.0712 10.9105 51.5673 10.3847 53.5505 10.3847ZM67.0025 20.4275C66.6515 20.3399 66.2392 20.2479 65.7653 20.1515C65.2914 20.0551 64.7824 20.0069 64.2385 20.0069C63.9927 20.0069 63.6988 20.0288 63.3565 20.0726C63.0144 20.1164 62.7554 20.1646 62.5799 20.2172V30.7859H58.6575V17.6934C59.3595 17.4479 60.1888 17.2158 61.1452 16.9966C62.1017 16.7776 63.1679 16.6681 64.3437 16.6681C64.5543 16.6681 64.8089 16.6812 65.1072 16.7075C65.4055 16.7337 65.7039 16.7688 66.0022 16.8126C66.3006 16.8564 66.5989 16.909 66.8972 16.9703C67.1956 17.0317 67.4501 17.1062 67.6606 17.1939L67.0025 20.4275ZM73.6892 30.7859H69.7667V16.9572H73.6892V30.7859ZM74.0576 12.9611C74.0576 13.6798 73.8251 14.245 73.3601 14.6569C72.895 15.0687 72.3465 15.2747 71.7148 15.2747C71.083 15.2747 70.5345 15.0687 70.0694 14.6569C69.6044 14.245 69.3719 13.6798 69.3719 12.9611C69.3719 12.2425 69.6044 11.6773 70.0694 11.2654C70.5345 10.8536 71.083 10.6476 71.7148 10.6476C72.3465 10.6476 72.895 10.8536 73.3601 11.2654C73.8251 11.6773 74.0576 12.2425 74.0576 12.9611ZM76.7165 23.9767C76.7165 22.7499 76.9052 21.6763 77.2825 20.7561C77.6598 19.836 78.1556 19.0691 78.7699 18.4558C79.3842 17.8423 80.0905 17.3778 80.8891 17.0625C81.6876 16.7469 82.5081 16.5891 83.3505 16.5891C85.3161 16.5891 86.8691 17.1894 88.0103 18.39C89.1506 19.5906 89.7211 21.3564 89.7211 23.6875C89.7211 23.9154 89.7125 24.1651 89.6952 24.4368C89.6771 24.7085 89.6598 24.9494 89.6424 25.1598H80.7442C80.832 25.9661 81.2094 26.6057 81.8762 27.0789C82.5432 27.5522 83.4382 27.7888 84.5614 27.7888C85.281 27.7888 85.9874 27.723 86.6807 27.5915C87.374 27.4601 87.9394 27.2981 88.3786 27.1052L88.9051 30.2864C88.6941 30.3915 88.414 30.4966 88.0631 30.6018C87.712 30.7069 87.3212 30.7991 86.8916 30.8778C86.4611 30.9568 86.0005 31.0224 85.5092 31.0751C85.0176 31.1276 84.5263 31.154 84.0348 31.154C82.7889 31.154 81.7052 30.9698 80.7838 30.6018C79.8624 30.2337 79.0989 29.7299 78.4935 29.0901C77.888 28.4504 77.4405 27.6924 77.1509 26.816C76.8613 25.9397 76.7165 24.9933 76.7165 23.9767ZM85.9304 22.4782C85.9128 22.1452 85.8558 21.8209 85.7592 21.5054C85.6626 21.1899 85.5134 20.9095 85.3117 20.6641C85.1099 20.4188 84.8554 20.2172 84.5483 20.0595C84.2412 19.9017 83.8594 19.8229 83.4031 19.8229C82.9644 19.8229 82.587 19.8974 82.2711 20.0463C81.9552 20.1953 81.692 20.3925 81.4814 20.6378C81.2708 20.8832 81.1085 21.1681 80.9944 21.4923C80.8803 21.8165 80.7969 22.1452 80.7442 22.4782H85.9304ZM92.7487 17.4305C93.4152 17.2376 94.2755 17.058 95.3284 16.8915C96.3814 16.725 97.4871 16.6417 98.6455 16.6417C99.8212 16.6417 100.8 16.7951 101.581 17.1018C102.361 17.4086 102.98 17.8423 103.437 18.4032C103.893 18.9641 104.217 19.6301 104.41 20.4012C104.604 21.1724 104.7 22.0312 104.7 22.9777V30.7859H100.777V23.4509C100.777 22.1889 100.611 21.2951 100.278 20.7693C99.944 20.2435 99.3207 19.9806 98.4087 19.9806C98.1277 19.9806 97.8295 19.9938 97.5131 20.02C97.1975 20.0463 96.9165 20.077 96.671 20.1121V30.7859H92.7487V17.4305ZM111.597 23.7664C111.597 24.9757 111.869 25.9484 112.413 26.6845C112.958 27.4208 113.765 27.7888 114.835 27.7888C115.186 27.7888 115.511 27.7757 115.81 27.7494C116.108 27.723 116.353 27.6924 116.546 27.6574V20.5327C116.301 20.375 115.981 20.2435 115.586 20.1383C115.191 20.0332 114.791 19.9806 114.388 19.9806C112.527 19.9806 111.597 21.2425 111.597 23.7664ZM120.469 30.3389C120.118 30.4441 119.714 30.5448 119.258 30.6412C118.802 30.7377 118.324 30.821 117.823 30.891C117.323 30.9611 116.814 31.018 116.296 31.062C115.779 31.1057 115.283 31.1276 114.808 31.1276C113.668 31.1276 112.651 30.9611 111.755 30.6281C110.86 30.2951 110.106 29.8175 109.491 29.1953C108.877 28.5731 108.408 27.8195 108.083 26.9344C107.758 26.0493 107.596 25.0546 107.596 23.9504C107.596 22.8286 107.736 21.8165 108.017 20.9139C108.298 20.0113 108.702 19.2445 109.228 18.6136C109.755 17.9825 110.4 17.5006 111.163 17.1676C111.926 16.8346 112.799 16.6681 113.782 16.6681C114.326 16.6681 114.814 16.7206 115.243 16.8258C115.673 16.931 116.108 17.0799 116.546 17.2727V11.0157L120.469 10.3847V30.3389ZM128.129 27.9728C128.849 27.9728 129.358 27.9027 129.656 27.7625C129.955 27.6223 130.103 27.3507 130.103 26.9474C130.103 26.6321 129.911 26.3559 129.525 26.1194C129.139 25.8828 128.551 25.6154 127.761 25.3175C127.147 25.0896 126.589 24.853 126.089 24.6077C125.589 24.3623 125.163 24.0687 124.813 23.727C124.462 23.3852 124.189 22.9777 123.997 22.5045C123.803 22.0312 123.707 21.4616 123.707 20.7956C123.707 19.4986 124.189 18.4732 125.155 17.7197C126.119 16.9661 127.445 16.5891 129.13 16.5891C129.973 16.5891 130.779 16.6636 131.552 16.8126C132.323 16.9616 132.939 17.1237 133.395 17.2991L132.711 20.3487C132.253 20.1909 131.758 20.0507 131.222 19.928C130.687 19.8053 130.086 19.744 129.42 19.744C128.191 19.744 127.576 20.0858 127.576 20.7693C127.576 20.927 127.603 21.0672 127.655 21.1899C127.708 21.3126 127.813 21.431 127.971 21.5448C128.129 21.6588 128.344 21.7814 128.617 21.9129C128.889 22.0443 129.235 22.1889 129.656 22.3468C130.516 22.6621 131.227 22.9732 131.788 23.2801C132.351 23.5868 132.793 23.9198 133.119 24.2791C133.442 24.6383 133.67 25.0371 133.803 25.4752C133.935 25.9134 134 26.4216 134 27.0001C134 28.3672 133.487 29.4012 132.461 30.1023C131.433 30.8033 129.981 31.154 128.103 31.154C126.875 31.154 125.852 31.0488 125.036 30.8384C124.22 30.6281 123.654 30.4529 123.338 30.3126L123.997 27.1316C124.663 27.3945 125.348 27.6004 126.049 27.7494C126.752 27.8984 127.445 27.9728 128.129 27.9728Z" fill="#434343"/>
<path d="M21.6129 43.2693C33.5494 43.2693 43.2257 33.583 43.2257 21.6346C43.2257 9.68617 33.5494 0 21.6129 0C9.67644 0 0 9.68617 0 21.6346C0 33.583 9.67644 43.2693 21.6129 43.2693Z" fill="#009A8D"/>
<path d="M11.8022 21.5109C11.8022 23.6903 12.6929 24.7799 14.4744 24.7799C14.88 24.7799 15.2592 24.7277 15.612 24.623C15.9647 24.5185 16.2646 24.3964 16.5115 24.2569V18.0328C16.3175 17.998 16.0882 17.9674 15.8236 17.9412C15.5591 17.9151 15.2504 17.902 14.8977 17.902C13.857 17.902 13.0809 18.242 12.5694 18.922C12.058 19.6019 11.8022 20.4649 11.8022 21.5109ZM20.4536 27.1075C20.4536 29.3566 19.8759 31.0258 18.7206 32.1155C17.5653 33.2051 15.7795 33.75 13.3631 33.75C12.5164 33.75 11.67 33.676 10.8233 33.5277C9.97663 33.3796 9.19183 33.1833 8.46864 32.9393L9.15655 29.6704C9.77381 29.9144 10.422 30.1062 11.1011 30.2457C11.7802 30.3852 12.5518 30.4549 13.4161 30.4549C14.5449 30.4549 15.343 30.2108 15.8104 29.7227C16.2779 29.2345 16.5115 28.6068 16.5115 27.8397V27.3429C16.0882 27.5346 15.6517 27.6784 15.202 27.7743C14.7522 27.8703 14.2628 27.9182 13.7335 27.9182C11.811 27.9182 10.3383 27.356 9.31528 26.2313C8.29226 25.1069 7.78076 23.5334 7.78076 21.5109C7.78076 20.4997 7.93951 19.5801 8.25698 18.7521C8.57446 17.9238 9.03743 17.2133 9.64596 16.6206C10.2545 16.0279 10.9997 15.5702 11.8816 15.2476C12.7634 14.9251 13.76 14.7638 14.8712 14.7638C15.3475 14.7638 15.8369 14.7856 16.3395 14.8293C16.8422 14.8728 17.3404 14.9294 17.8344 14.9992C18.3282 15.0689 18.8001 15.1517 19.2498 15.2476C19.6996 15.3436 20.1008 15.4439 20.4536 15.5483V27.1075ZM37.1742 21.9294C37.1742 23.0104 37.0156 23.9998 36.698 24.8976C36.3806 25.7955 35.922 26.5626 35.3224 27.1989C34.7227 27.8353 34.0039 28.3278 33.1661 28.6766C32.3283 29.0252 31.3891 29.1996 30.3485 29.1996C29.3255 29.1996 28.3951 29.0252 27.5573 28.6766C26.7195 28.3278 26.0007 27.8353 25.401 27.1989C24.8013 26.5626 24.3339 25.7955 23.9988 24.8976C23.6637 23.9998 23.4961 23.0104 23.4961 21.9294C23.4961 20.8485 23.668 19.8635 24.0121 18.9742C24.356 18.0851 24.8322 17.3268 25.4407 16.6991C26.0492 16.0714 26.7723 15.5832 27.6102 15.2346C28.448 14.8859 29.3607 14.7115 30.3485 14.7115C31.3538 14.7115 32.2754 14.8859 33.1132 15.2346C33.951 15.5832 34.6697 16.0714 35.2694 16.6991C35.869 17.3268 36.3364 18.0851 36.6716 18.9742C37.0068 19.8635 37.1742 20.8485 37.1742 21.9294ZM33.1528 21.9294C33.1528 20.7264 32.9104 19.7806 32.4252 19.0919C31.9403 18.4033 31.2479 18.059 30.3485 18.059C29.4488 18.059 28.7522 18.4033 28.2584 19.0919C27.7644 19.7806 27.5176 20.7264 27.5176 21.9294C27.5176 23.1325 27.7644 24.0869 28.2584 24.793C28.7522 25.4991 29.4488 25.8521 30.3485 25.8521C31.2479 25.8521 31.9403 25.4991 32.4252 24.793C32.9104 24.0869 33.1528 23.1325 33.1528 21.9294Z" fill="white"/>
</svg>
