<svg width="22" height="21" viewBox="0 0 22 21" fill="none" xmlns="http://www.w3.org/2000/svg">
<path fill-rule="evenodd" clip-rule="evenodd" d="M2.53455 0H19.1274C20.2681 0 21.2015 0.903237 21.2015 2.00719V18.0647C21.2015 19.1687 20.2681 20.0719 19.1274 20.0719H2.53455C1.39379 20.0719 0.460449 19.1687 0.460449 18.0647V2.00719C0.460449 0.903237 1.39379 0 2.53455 0ZM15.1798 10.0357C15.1798 7.82777 13.3733 6.02129 11.1654 6.02129C8.95748 6.02129 7.151 7.82777 7.151 10.0357C7.151 12.2436 8.95748 14.0501 11.1654 14.0501C13.3733 14.0501 15.1798 12.2436 15.1798 10.0357ZM2.9903 18.7335C2.67667 18.7335 2.46759 18.5254 2.46759 18.2132V9.36664H4.66296C4.55842 9.67887 4.55842 10.0952 4.55842 10.4074C4.55842 13.8419 7.38103 16.652 10.8309 16.652C14.2808 16.652 17.1034 13.8419 17.1034 10.4074C17.1034 10.0952 17.1034 9.67887 16.9988 9.36664H19.1942V18.2132C19.1942 18.5254 18.9851 18.7335 18.6715 18.7335H2.9903ZM18.0791 5.35221C18.3467 5.35221 18.5251 5.17379 18.5251 4.90616V3.12199C18.5251 2.85436 18.3467 2.67595 18.0791 2.67595H16.2949C16.0273 2.67595 15.8489 2.85436 15.8489 3.12199V4.90616C15.8489 5.17379 16.0273 5.35221 16.2949 5.35221H18.0791Z" fill="white"/>
</svg>
