<svg width="70" height="70" viewBox="0 0 70 70" fill="none" xmlns="http://www.w3.org/2000/svg">
<path fill-rule="evenodd" clip-rule="evenodd" d="M59.0625 61.7969H68.6328C69.388 61.7969 70 62.4089 70 63.1641C70 66.9334 66.9334 70 63.1641 70H12.2961C8.52676 70 5.46021 66.9334 5.46021 63.1641V8.20312H1.36719C0.61203 8.20312 0 7.59109 0 6.83594C0 3.06656 3.06656 0 6.83594 0H52.7366C52.8808 0 53.0196 0.0224303 53.1505 0.0640869C56.4841 0.516434 59.0625 3.38005 59.0625 6.83594V61.7969ZM46.7616 2.73438H6.83594C5.05379 2.73438 3.53386 3.87726 2.96936 5.46875H45.5284C45.734 4.45885 46.1629 3.52959 46.7616 2.73438ZM8.19458 63.1641V8.20312H46.7578C47.513 8.20312 48.125 7.59109 48.125 6.83594C48.125 4.5742 49.9648 2.73438 52.2266 2.73438C54.4883 2.73438 56.3281 4.5742 56.3281 6.83594V63.1641C56.3281 64.7016 56.8387 66.1222 57.6991 67.2656H12.2961C10.0344 67.2656 8.19458 65.4258 8.19458 63.1641ZM59.2969 64.5312C59.8609 66.1227 61.3814 67.2656 63.164 67.2656C64.9467 67.2656 66.4672 66.1227 67.0312 64.5312H59.2969Z" fill="#F84419"/>
<path d="M14.3556 25H50.6444C51.3931 25 52 24.3285 52 23.5C52 22.6715 51.3931 22 50.6444 22H14.3556C13.6069 22 13 22.6715 13 23.5C13 24.3285 13.6069 25 14.3556 25Z" fill="#F84419"/>
<path d="M37.4108 31H47.5892C48.3684 31 49 30.3285 49 29.5C49 28.6715 48.3684 28 47.5892 28H37.4108C36.6316 28 36 28.6715 36 29.5C36 30.3285 36.6316 31 37.4108 31Z" fill="#F84419"/>
<path d="M30.4395 28.4395C30.1605 28.7184 30 29.1051 30 29.5C30 29.8943 30.1605 30.2816 30.4395 30.56C30.7184 30.8395 31.1057 31 31.5 31C31.8943 31 32.2816 30.8395 32.5605 30.56C32.8395 30.2816 33 29.8943 33 29.5C33 29.1051 32.8395 28.7184 32.5605 28.4395C32.2816 28.1605 31.8943 28 31.5 28C31.1039 28 30.7184 28.16 30.4395 28.4395Z" fill="#F84419"/>
<path d="M19.3735 18H45.6265C46.3851 18 47 17.3285 47 16.5C47 15.6715 46.3851 15 45.6265 15H19.3735C18.6149 15 18 15.6715 18 16.5C18 17.3285 18.6149 18 19.3735 18Z" fill="#F84419"/>
<path fill-rule="evenodd" clip-rule="evenodd" d="M30.1388 38.948C29.6682 38.7076 29.2921 38.332 29.0517 37.8614C27.8739 35.5563 25.2313 34.4611 22.7684 35.259C22.2656 35.4216 21.7344 35.4216 21.2316 35.259C18.7687 34.4617 16.1261 35.5557 14.9483 37.8614C14.7079 38.332 14.3318 38.7076 13.8612 38.948C11.5561 40.1263 10.4614 42.7684 11.2588 45.2313C11.4214 45.7341 11.4214 46.2659 11.2588 46.7686C10.4614 49.2315 11.5561 51.8737 13.8612 53.052C14.3318 53.2924 14.7079 53.668 14.9483 54.1386C15.3057 54.8383 15.7988 55.4242 16.3799 55.8819V63.6264C16.3799 64.1828 16.7158 64.6845 17.2309 64.8964C17.7455 65.1084 18.3368 64.9887 18.729 64.5938L22 61.2955L25.271 64.5938C25.5339 64.8589 25.887 65 26.2465 65C26.4225 65 26.6001 64.9662 26.7691 64.8964C27.2837 64.6845 27.6196 64.1828 27.6196 63.6264V55.8835C28.2012 55.4258 28.6943 54.8383 29.0517 54.1386C29.2921 53.668 29.6677 53.2924 30.1383 53.052C32.4439 51.8742 33.5386 49.2315 32.7412 46.7686C32.5786 46.2659 32.5786 45.7341 32.7412 45.2319C33.5386 42.7684 32.4439 40.1258 30.1388 38.948ZM24.8723 60.2904L22.9755 58.3775C22.7174 58.1173 22.3659 57.9713 22 57.9713C21.6335 57.9713 21.2826 58.1173 21.0245 58.3775L19.1271 60.2904V56.976C19.2849 56.9899 19.4426 57.0001 19.602 57.0001C20.1423 57.0001 20.6913 56.9164 21.2316 56.7415C21.7344 56.5784 22.2656 56.5784 22.7683 56.7415C23.468 56.9674 24.1817 57.0409 24.8723 56.9781V60.2904ZM26.6055 52.8886C27.1104 51.8997 27.9002 51.1104 28.8886 50.6049C29.9859 50.0447 30.5069 48.787 30.1276 47.6146C29.7858 46.558 29.7858 45.4414 30.1276 44.3849C30.5069 43.213 29.9859 41.9553 28.8886 41.3945C27.9002 40.8896 27.1104 40.0998 26.6055 39.1109C26.0447 38.0136 24.787 37.4931 23.6146 37.8724C22.5581 38.2142 21.4414 38.2142 20.3855 37.8724C20.1284 37.7893 19.8671 37.749 19.6096 37.749C18.6947 37.749 17.8324 38.2545 17.3946 39.1109C16.8897 40.0998 16.0998 40.8896 15.1114 41.3945C14.0141 41.9553 13.4931 43.213 13.8725 44.3849C14.2143 45.4414 14.2143 46.558 13.8725 47.6146C13.4931 48.7865 14.0141 50.0447 15.1114 50.6049C16.0998 51.1104 16.8897 51.8997 17.3951 52.8886C17.9553 53.9859 19.213 54.5064 20.3855 54.1276C21.442 53.7852 22.5586 53.7852 23.6146 54.1276C24.7865 54.5064 26.0447 53.9854 26.6055 52.8886Z" fill="#F84419"/>
<path fill-rule="evenodd" clip-rule="evenodd" d="M16 45.9997C16 42.6918 18.6912 40 21.9997 40C25.3082 40 28 42.6918 28 45.9997C28 49.3082 25.3082 52 21.9997 52C18.6912 52 16 49.3082 16 45.9997ZM18.7652 46.0002C18.7652 47.7835 20.2158 49.2347 21.9997 49.2347C23.7836 49.2347 25.2348 47.7835 25.2348 46.0002C25.2348 44.2163 23.7836 42.7651 21.9997 42.7651C20.2164 42.7651 18.7652 44.2163 18.7652 46.0002Z" fill="#F84419"/>
<path d="M50.5898 36.4639L46.446 41.1207C46.3542 41.224 46.2457 41.2398 46.1724 41.2432C46.098 41.242 45.9905 41.2189 45.902 41.1139C45.3048 40.4081 44.4438 40.0035 43.5394 40.0035C42.6355 40.0035 41.7745 40.4081 41.1773 41.1139L40.4434 41.9812C40.3532 42.0884 40.2436 42.111 40.1681 42.111C40.0927 42.111 39.9835 42.0884 39.8934 41.9812L38.4336 40.2563C37.9266 39.657 37.0487 39.5983 36.4722 40.1254C35.8957 40.6524 35.8392 41.5648 36.3462 42.164L37.806 43.889C38.4032 44.5949 39.2642 45 40.1681 45C41.0726 45 41.9336 44.5949 42.5307 43.8895L43.2647 43.0217C43.3548 42.9151 43.4639 42.8925 43.5394 42.8925C43.6154 42.8925 43.7245 42.9151 43.8146 43.0217C44.402 43.7157 45.2484 44.1203 46.1376 44.1322C47.0279 44.1406 47.883 43.7609 48.4867 43.0826L52.6305 38.4252C53.1516 37.8395 53.1174 36.926 52.5539 36.3843C51.9904 35.8421 51.1109 35.8782 50.5898 36.4639Z" fill="#F84419"/>
<path d="M48.6268 49H38.3732C37.6147 49 37 49.6715 37 50.5C37 51.3285 37.6147 52 38.3732 52H48.6268C49.3853 52 50 51.3285 50 50.5C50 49.6715 49.3853 49 48.6268 49Z" fill="#F84419"/>
</svg>
