<svg width="79" height="79" viewBox="0 0 79 79" fill="none" xmlns="http://www.w3.org/2000/svg">
<path d="M53 25C51.896 25 51 25.896 51 27C51 28.104 51.896 29 53 29C54.104 29 55 28.104 55 27C55 25.896 54.104 25 53 25Z" fill="#F84419"/>
<path fill-rule="evenodd" clip-rule="evenodd" d="M56.5962 47.8689L77.1918 68.4645C78.3577 69.6294 79 71.1792 79 72.8281C79 74.4771 78.3577 76.0269 77.1913 77.1923C76.0258 78.3578 74.4762 79 72.8281 79C71.1801 79 69.6305 78.3578 68.4643 77.1918L53.5642 62.2917L53.5617 62.2892L47.8689 56.5964C42.8152 59.9513 36.9627 61.7188 30.8594 61.7188C13.8435 61.7188 0 47.8752 0 30.8594C0 13.8435 13.8435 0 30.8594 0C47.8752 0 61.7188 13.8435 61.7188 30.8594C61.7188 36.9626 59.9514 42.8151 56.5962 47.8689ZM47.1429 53.3449C47.1431 53.3447 47.1432 53.3447 47.1432 53.3446C49.5276 51.614 51.614 49.5274 53.3447 47.1431C56.8042 42.3803 58.6328 36.7497 58.6328 30.8594C58.6328 15.5451 46.1736 3.08594 30.8594 3.08594C15.5451 3.08594 3.08594 15.5451 3.08594 30.8594C3.08594 46.1736 15.5451 58.6328 30.8594 58.6328C36.7497 58.6328 42.3803 56.8042 47.1429 53.3449ZM50.3804 54.7434C51.9773 53.437 53.4371 51.9772 54.7434 50.3804L59.121 54.7579C57.7897 56.3291 56.3291 57.7899 54.7579 59.121L50.3804 54.7434ZM72.8281 75.914C73.6518 75.914 74.4265 75.5929 75.0097 75.0096C75.593 74.4267 75.9141 73.6523 75.9141 72.828C75.9141 72.0038 75.593 71.2294 75.01 70.6471L61.3088 56.9458C59.968 58.5084 58.5083 59.9679 56.9457 61.3089L70.6465 75.0096C71.2298 75.5929 72.0045 75.914 72.8281 75.914Z" fill="#F84419"/>
<path d="M52.8966 20.9015C51.5635 17.4406 49.2425 14.4817 46.1841 12.3447C43.053 10.1566 39.3751 9 35.5481 9C34.6932 9 34 9.69148 34 10.5442C34 11.3969 34.6932 12.0884 35.5481 12.0884C41.9105 12.0884 47.7207 16.0751 50.0065 22.0093C50.243 22.6232 50.8296 23 51.4519 23C51.6364 23 51.8242 22.9668 52.0067 22.8968C52.8048 22.5909 53.2033 21.6976 52.8966 20.9015Z" fill="#F84419"/>
</svg>
