<svg width="21" height="16" viewBox="0 0 21 16" fill="none" xmlns="http://www.w3.org/2000/svg">
<path fill-rule="evenodd" clip-rule="evenodd" d="M20 0.318184L10.5 8.85733L1 0.318184C1.38828 0.120949 1.82743 0 2.30159 0H18.6975C19.1711 0 19.6101 0.120949 20 0.318184ZM20.6615 15C20.8699 14.6004 21 14.1463 21 13.6564V2.4838C21 1.93691 20.8456 1.43083 20.5893 1L14 7.10596L20.6615 15ZM13.1105 8.00008L10.9431 9.86896C10.8163 9.97771 10.6585 10.032 10.5 10.032C10.3415 10.032 10.1836 9.97771 10.0569 9.86896L7.88899 8L1 15.592C1.41292 15.8472 1.89685 16 2.42021 16H18.5798C19.1031 16 19.5872 15.8472 20 15.592L13.1105 8.00008ZM0 2.48383C0 1.9369 0.154549 1.43082 0.410854 1L7 7.10463L0.338711 15C0.129501 14.6004 0 14.1463 0 13.6564V2.48383Z" fill="white"/>
</svg>
