<svg width="86" height="84" viewBox="0 0 86 84" fill="none" xmlns="http://www.w3.org/2000/svg">
<path d="M70.6238 44C69.8637 44 69.2475 44.6292 69.2475 45.4052C69.2475 46.3891 68.4636 47.1895 67.5 47.1895C66.5366 47.1895 65.7525 46.3891 65.7525 45.4052C65.7525 44.629 65.1363 44 64.3762 44C63.6162 44 63 44.6292 63 45.4052C63 47.9388 65.0188 50 67.5 50C69.9812 50 72 47.9386 72 45.4052C72 44.6288 71.3838 44 70.6238 44Z" fill="#F84419"/>
<path fill-rule="evenodd" clip-rule="evenodd" d="M82.7152 44.6501L79.1926 43.5255C78.7414 43.3814 78.3858 43.0224 78.2415 42.5652C77.4991 40.2127 76.3788 38.0041 74.9115 36.0005C74.2429 35.0873 73.4993 34.2153 72.687 33.3851C73.2067 31.1129 73.4892 28.5413 73.4526 26.3197C73.4002 23.1414 72.7629 21.2774 71.5045 20.6204C70.8267 20.2662 68.7641 19.1901 57.5997 24.2837C57.3353 24.4042 57.0884 24.5527 56.8598 24.7228C56.1071 24.5212 55.3378 24.3347 54.5638 24.1673C54.5115 24.1559 54.4582 24.1453 54.405 24.1347L54.4048 24.1346C54.3632 24.1263 54.3217 24.118 54.2806 24.1094C55.1853 22.1397 55.7136 20.0004 55.8128 17.7919C55.8437 17.1035 55.3091 16.5206 54.6184 16.49C53.9296 16.4558 53.3428 16.9919 53.3121 17.6803C53.149 21.3115 51.6376 24.7281 49.0566 27.3007C47.5145 28.8377 45.7088 29.9541 43.7844 30.6572C40.447 30.1905 37.0477 30.1905 33.7103 30.6572C31.7857 29.9541 29.9802 28.8377 28.4381 27.3007C25.6844 24.5562 24.1678 20.9072 24.1678 17.0259C24.1678 13.1444 25.6844 9.49553 28.4381 6.75105C31.1918 4.0064 34.8532 2.49488 38.7474 2.49488C42.6416 2.49488 46.3029 4.0064 49.0566 6.75105C50.1632 7.85393 51.0776 9.1125 51.7745 10.4914C52.0854 11.1068 52.8381 11.3546 53.4554 11.0446C54.0728 10.7349 54.3213 9.9847 54.0104 9.36948C53.1935 7.75248 52.1224 6.27813 50.8268 4.98674C47.6003 1.77101 43.3104 0 38.7475 0C34.1847 0 29.8947 1.77101 26.6682 4.98674C23.4417 8.20264 21.6648 12.4781 21.6648 17.0257C21.6648 21.5733 23.4417 25.8489 26.6682 29.0647C27.5989 29.9923 28.6115 30.79 29.6824 31.4583L29.6834 31.4581C28.9052 31.6596 28.1329 31.886 27.3692 32.1404C26.7136 32.3589 26.3598 33.0655 26.579 33.7191C26.7981 34.3725 27.5074 34.725 28.1628 34.5067C34.9884 32.2325 42.5067 32.2325 49.3323 34.5067C49.4639 34.5506 49.5976 34.5714 49.7292 34.5714C50.2527 34.5714 50.7408 34.2412 50.916 33.7191C51.1352 33.0657 50.7815 32.3589 50.1259 32.1404C49.3622 31.886 48.5898 31.6595 47.8116 31.4581L47.8126 31.4583C48.8838 30.79 49.8961 29.9923 50.8268 29.0647C51.6502 28.244 52.377 27.3479 53.0081 26.3955C53.3531 26.4623 53.6956 26.5323 54.033 26.6053C54.4825 26.7025 54.93 26.807 55.3734 26.9166L55.3687 26.9351C55.3563 26.9831 55.3439 27.0312 55.3336 27.08C54.7232 29.967 54.7629 32.5203 55.4514 34.6686C56.0702 36.5997 57.187 38.1641 58.7704 39.3187C60.6367 40.6794 62.8899 41.2672 64.9308 41.2672C66.4669 41.2672 67.8831 40.934 68.9231 40.3469C70.0996 39.6828 71.0852 38.2835 71.8654 36.1825C72.2261 36.602 72.5679 37.0318 72.89 37.4717C74.1963 39.2553 75.1936 41.221 75.854 43.3139C76.2419 44.5432 77.2047 45.5105 78.4293 45.9017L81.952 47.0263C82.8763 47.3215 83.4973 48.1694 83.4973 49.1367V54.9583C83.4973 55.9256 82.8763 56.7735 81.952 57.0686L76.2765 58.8805C75.3684 59.1706 74.6 59.7925 74.1127 60.6319C71.8829 64.4726 68.3772 67.6508 63.6924 70.0784C63.1512 70.3591 62.7763 70.8612 62.6634 71.4561L60.8457 81.0491C60.7954 81.3134 60.5631 81.5051 60.2932 81.5051H54.3829C54.113 81.5051 53.8807 81.3133 53.8305 81.0491L52.8237 75.7475C52.6255 74.7044 51.6438 74.0115 50.5873 74.171C48.0414 74.5547 45.4181 74.749 42.7905 74.749C40.8357 74.749 38.9059 74.6404 37.0544 74.426C36.0306 74.3086 35.0769 75.0042 34.8856 76.0116L33.9288 81.0491C33.8786 81.3134 33.6463 81.5051 33.3764 81.5051H27.4661C27.1962 81.5051 26.9639 81.3133 26.913 81.0451L25.1627 71.9846C25.05 71.4009 24.6822 70.9045 24.1529 70.6228C16.167 66.3738 11.9459 59.2751 11.9459 50.0944C11.9459 45.4559 12.9642 41.3542 14.9722 37.9029C16.8461 34.6822 19.583 32.0192 23.1068 29.9877C23.7051 29.6427 23.9095 28.8797 23.5635 28.2832C23.2175 27.6869 22.4519 27.4835 21.8534 27.828C15.0206 31.7675 10.8995 37.845 9.76486 45.5642V45.564L9.6926 45.5575C9.59622 45.5489 9.49981 45.5403 9.40373 45.5304C9.42557 44.6975 9.27439 43.8571 8.94518 43.0415C8.21905 41.2426 6.72748 39.9442 5.14505 39.7337C3.89805 39.5673 2.71135 40.095 1.8878 41.1795C0.693711 42.7521 0.888387 43.9966 1.26178 44.7636C1.89217 46.0582 3.51256 46.9739 6.20157 47.5497C6.12767 47.66 6.04637 47.7708 5.95735 47.8821C4.36853 49.8681 2.49669 50.3072 1.28127 50.3485C0.56975 50.3725 0 50.9418 0 51.6515V51.6575C0 52.3574 0.554129 52.9283 1.25573 52.9603C1.3456 52.9645 1.43949 52.9666 1.53725 52.9666C3.07517 52.9666 5.54347 52.4013 7.91486 49.4377C8.28926 48.9699 8.59429 48.4764 8.82877 47.9665C9.06494 47.9931 9.29186 48.0159 9.50921 48.036C9.50921 48.0355 9.50922 48.0351 9.50938 48.0346C9.46672 48.7106 9.44304 49.3965 9.44304 50.0944C9.44304 55.2887 10.6855 59.9201 13.1357 63.8604C15.3948 67.4931 18.6294 70.4676 22.7527 72.7045L24.4542 81.5128C24.7279 82.9539 25.9945 83.9998 27.4661 83.9998H33.3764C34.848 83.9998 36.1146 82.9539 36.3882 81.5128L37.2533 76.958C39.0499 77.1477 40.91 77.2438 42.7904 77.2438C45.3704 77.2438 47.9474 77.0646 50.4588 76.7111L51.3707 81.5132C51.6445 82.9542 52.9112 84 54.3826 84H60.2929C61.7645 84 63.0311 82.954 63.3049 81.5125L65.0748 72.1726C70.0749 69.5375 73.8438 66.0758 76.279 61.8813C76.4545 61.5789 76.7248 61.3571 77.0399 61.2565L82.7152 59.4446C84.6799 58.817 86 57.0142 86 54.9579V49.1363C86 47.0802 84.6799 45.2774 82.7152 44.6501ZM70.7616 29.8249C70.2798 33.9308 68.9876 37.443 67.6892 38.1759C66.2135 39.0091 62.8062 39.1699 60.248 37.3049C57.6869 35.4376 56.8344 32.0797 57.7826 27.5942V27.594C57.8778 27.1435 58.199 26.7538 58.6416 26.5519C64.9075 23.6933 68.52 22.7583 69.8621 22.7583C70.0646 22.7583 70.2155 22.7796 70.3159 22.8187C70.7191 23.247 71.2478 25.6812 70.7616 29.8249ZM3.88409 42.6847C3.69025 42.9401 3.38455 43.408 3.51405 43.6742C3.80615 44.275 5.15225 44.7908 6.88485 45.1486C6.85428 44.634 6.7236 44.2213 6.62298 43.9722C6.19584 42.914 5.38959 42.2829 4.81413 42.2064C4.7755 42.2012 4.73334 42.1975 4.68815 42.1975C4.47433 42.1975 4.1913 42.2802 3.88409 42.6847Z" fill="#F84419"/>
<path fill-rule="evenodd" clip-rule="evenodd" d="M40.3519 15.5731V11.1173C41.2115 11.1845 41.7401 11.4742 42.1312 11.6885C42.3786 11.824 42.5709 11.9294 42.7573 11.9294C43.3586 11.9294 43.6393 11.0954 43.6393 10.6783C43.6393 9.60259 41.7149 9.1417 40.3519 9.09775V8.50484C40.3519 8.24147 40.0512 8 39.7506 8C39.4097 8 39.1692 8.24147 39.1692 8.50484V9.14137C37.265 9.36095 35.3607 10.4585 35.3607 13.2244C35.3607 16.0342 37.3652 16.8245 39.1692 17.5268V22.6854C37.8889 22.5754 37.1981 21.9318 36.6982 21.466C36.3997 21.1879 36.1693 20.9731 35.922 20.9731C35.4209 20.9731 35 21.6976 35 22.2245C35 23.3 36.6837 24.7707 39.1692 24.8147V25.4952C39.1692 25.7585 39.4098 26 39.7506 26C40.0513 26 40.3519 25.7585 40.3519 25.4952V24.7488C42.5168 24.4195 44 22.9268 44 20.2268C44 17.2416 42.0958 16.2755 40.3519 15.5731ZM39.2894 15.1561C38.2271 14.7171 37.3652 14.2562 37.3652 13.005C37.3652 11.8635 38.167 11.3147 39.2894 11.1611V15.1561ZM40.2315 18.0098V22.6414C41.3139 22.422 41.9953 21.7196 41.9953 20.4681C41.9953 19.0853 41.2136 18.4707 40.2315 18.0098Z" fill="#F84419"/>
</svg>
