<svg width="159" height="76" viewBox="0 0 159 76" fill="none" xmlns="http://www.w3.org/2000/svg">
<path d="M37.838 60H66.878V56.634H42.854L57.176 41.916C61.862 37.164 65.822 32.082 65.822 26.34C65.822 17.76 59.156 13.074 52.094 13.074C46.088 13.074 40.874 15.978 38.102 21.654L41.072 23.436C43.25 18.816 47.078 16.44 52.094 16.44C57.704 16.44 62.258 20.004 62.258 26.34C62.258 30.894 58.826 35.25 54.8 39.408L37.838 56.832V60ZM90.7102 60.726C101.798 60.726 108.002 51.156 108.002 36.9C108.002 22.644 101.798 13.074 90.7102 13.074C79.6222 13.074 73.4182 22.644 73.4182 36.9C73.4182 51.156 79.6222 60.726 90.7102 60.726ZM90.7102 57.36C82.1302 57.36 76.9822 49.836 76.9822 36.9C76.9822 23.964 82.1302 16.44 90.7102 16.44C99.2902 16.44 104.438 23.964 104.438 36.9C104.438 49.836 99.2902 57.36 90.7102 57.36ZM125.219 32.742C131.159 32.742 135.317 28.386 135.317 22.908C135.317 17.43 131.027 13.074 125.219 13.074C119.411 13.074 115.121 17.43 115.121 22.908C115.121 28.386 119.411 32.742 125.219 32.742ZM125.219 29.706C121.259 29.706 118.421 26.736 118.421 22.908C118.421 19.08 121.259 16.11 125.219 16.11C129.245 16.11 132.083 19.08 132.083 22.908C132.083 26.736 129.245 29.706 125.219 29.706ZM117.629 54.06L119.807 55.314L151.223 20.07L148.979 18.816L117.629 54.06ZM143.897 60.726C149.705 60.726 153.995 56.37 153.995 50.892C153.995 45.414 149.705 41.058 143.897 41.058C138.089 41.058 133.799 45.414 133.799 50.892C133.799 56.37 138.089 60.726 143.897 60.726ZM143.897 57.69C139.937 57.69 137.099 54.72 137.099 50.892C137.099 47.064 139.937 44.094 143.897 44.094C147.923 44.094 150.761 47.064 150.761 50.892C150.761 54.72 147.923 57.69 143.897 57.69Z" fill="#F84419"/>
<path d="M8.625 48.5V52.64H4.715V48.5H1.265V60H4.715V55.86H8.625V60H12.075V48.5H8.625ZM23.2207 48.5V49.581C22.4617 48.707 21.3347 48.178 19.7937 48.178C16.7807 48.178 14.2967 50.823 14.2967 54.25C14.2967 57.677 16.7807 60.322 19.7937 60.322C21.3347 60.322 22.4617 59.793 23.2207 58.919V60H26.6707V48.5H23.2207ZM20.4837 57.056C18.8967 57.056 17.7467 55.975 17.7467 54.25C17.7467 52.525 18.8967 51.444 20.4837 51.444C22.0707 51.444 23.2207 52.525 23.2207 54.25C23.2207 55.975 22.0707 57.056 20.4837 57.056Z" fill="#F84419"/>
</svg>
