<svg width="62" height="70" viewBox="0 0 62 70" fill="none" xmlns="http://www.w3.org/2000/svg">
<path fill-rule="evenodd" clip-rule="evenodd" d="M62 62.7238V1.45798C62 0.652561 61.3404 0 60.5253 0H5.90569C2.64471 0 0 2.61162 0 5.833V5.83519V65.625C0 68.0411 1.98512 70 4.42861 70H60.5253C61.3406 70 62 69.3463 62 68.5409C62 67.7355 61.3404 67.0819 60.5253 67.0819V64.1808C61.3404 64.1808 62 63.5292 62 62.7238ZM4.42877 67.0816C3.6157 67.0816 2.95404 66.4279 2.95404 65.6247C2.95404 64.8898 3.50762 64.2788 4.22561 64.1807H57.3727C56.6504 64.279 56.0968 64.8856 56.0968 65.6247C56.0968 66.4301 56.7585 67.0816 57.5715 67.0816H4.42877ZM4.42877 61.2648H59.0485H59.0486V2.91699H5.90571C4.27736 2.91699 2.95404 4.2254 2.95404 5.83295V59.8228V61.2648H4.07199C4.19087 61.2541 4.30989 61.2499 4.42877 61.2499V61.2648Z" fill="#F84419"/>
<path fill-rule="evenodd" clip-rule="evenodd" d="M40.1655 14.6442C39.1458 14.6442 38.1564 14.7843 37.2192 15.0456C35.4878 13.7611 33.3335 13 31.0012 13C28.6669 13 26.5126 13.7611 24.779 15.0456C23.8418 14.7845 22.8546 14.6442 21.8327 14.6442C15.849 14.6442 11 19.4301 11 25.3344C11 29.781 13.7532 33.5927 17.6671 35.2037V51H44.333V35.2037C48.247 33.5927 51 29.781 51 25.3344C51 19.4301 46.1489 14.6442 40.1655 14.6442ZM41.3715 48.0753H41.3671C41.3671 47.2681 40.7033 46.6152 39.8875 46.6152H41.3715V48.0753ZM35.4442 46.6152H39.8875C39.0674 46.6152 38.4034 47.2682 38.4034 48.0753H36.9238C36.9238 47.2681 36.26 46.6152 35.4442 46.6152ZM31.0009 46.6152H35.4442C34.6242 46.6152 33.9602 47.2682 33.9602 48.0753H32.4806C32.4806 47.2681 31.8167 46.6152 31.0009 46.6152ZM26.5578 46.6152H31.0009C30.1809 46.6152 29.5169 47.2682 29.5169 48.0753H28.0373C28.0373 47.2681 27.3736 46.6152 26.5578 46.6152ZM22.1145 46.6152H26.5578C25.7378 46.6152 25.0738 47.2682 25.0738 48.0753H23.5942C23.5942 47.2681 22.9303 46.6152 22.1145 46.6152ZM22.1145 46.6152C21.2945 46.6152 20.6305 47.2682 20.6305 48.0753V46.6152H22.1145ZM43.1921 32.5056C44.6088 31.9222 45.8174 30.9483 46.683 29.6894C47.5682 28.4027 48.0368 26.8966 48.0368 25.3338C48.0368 21.051 44.5069 17.5669 40.1655 17.5669C39.992 17.5669 39.8184 17.5733 39.6448 17.584C40.734 19.2026 41.3674 21.1431 41.3674 23.2294H41.3479C41.3479 24.0366 40.6861 24.6916 39.866 24.6916C39.0503 24.6916 38.3864 24.0366 38.3864 23.2294C38.3864 23.1642 38.3909 23.101 38.3995 23.0379C38.2953 19.0967 35.0194 15.9229 31.0013 15.9229C26.9161 15.9229 23.5945 19.2005 23.5945 23.2296H23.5749C23.5749 24.0367 22.9131 24.6918 22.0931 24.6918C21.2773 24.6918 20.6135 24.0367 20.6135 23.2296C20.6135 23.1461 20.6221 23.0647 20.6351 22.9855C20.6829 20.9914 21.3077 19.1397 22.3534 17.5843C22.1799 17.5736 22.0063 17.5672 21.8327 17.5672C17.4936 17.5672 13.9615 21.0513 13.9616 25.3341C13.9616 28.4801 15.8643 31.2953 18.8084 32.5058L20.6308 33.2552V35.2034V43.6908H41.3719V35.2031V33.2549L43.1921 32.5056Z" fill="#F84419"/>
<path d="M25.5011 29C24.6726 29 24 29.6394 24 30.4283C24 30.4283 24 30.4283 24 30.4293V37.5707C24 37.5707 24 37.5707 24 37.5728C24 38.3597 24.6725 39 25.5011 39C26.3298 39 27 38.3597 27 37.5728C27 37.5707 27 37.5707 27 37.5707V30.4293C27 30.4283 27 30.4283 27 30.4283C27 29.6393 26.3295 29 25.5011 29Z" fill="#F84419"/>
<path d="M31.4989 29C30.6725 29 30 29.6393 30 30.4283C30 30.4283 30 30.4283 30 30.4293V37.5707C30 37.5707 30 37.5707 30 37.5728C30 38.3597 30.6725 39 31.4989 39C32.3296 39 33 38.3597 33 37.5728C33 37.5707 33 37.5707 33 37.5707V30.4293C33 30.4283 33 30.4283 33 30.4283C33 29.6393 32.3296 29 31.4989 29Z" fill="#F84419"/>
<path d="M36.5 29C35.672 29 35 29.6394 35 30.4283C35 30.4283 35 30.4283 35 30.4293V37.5707C35 37.5707 35 37.5707 35 37.5728C35 38.3597 35.672 39 36.5 39C37.328 39 38 38.3597 38 37.5728C38 37.5707 38 37.5707 38 37.5707V30.4293C38 30.4283 38 30.4283 38 30.4283C38 29.6393 37.328 29 36.5 29Z" fill="#F84419"/>
</svg>
