<svg width="23" height="16" viewBox="0 0 23 16" fill="none" xmlns="http://www.w3.org/2000/svg">
<path fill-rule="evenodd" clip-rule="evenodd" d="M16.5212 0C19.3314 0 20.8029 0.382727 21.5998 1.32099C22.4005 2.26342 22.4604 3.70693 22.4604 5.80149V9.58707C22.4604 11.9873 22.0782 13.3736 21.1823 14.2227C20.3086 15.0508 18.9582 15.3885 16.5213 15.3885H6.32029C1.29978 15.3885 0.381287 13.4349 0.381287 9.58707V5.80149C0.381287 3.81535 0.381287 2.3803 1.15541 1.40634C1.9494 0.407414 3.4458 0 6.32029 0H16.5212ZM10.1153 10.6272L14.7206 8.29504C14.9546 8.17662 15.1011 7.9419 15.1008 7.68598C15.1005 7.43026 14.9533 7.19588 14.719 7.07801L10.1137 4.76087C9.89424 4.6504 9.63118 4.65891 9.41968 4.78337C9.20824 4.90783 9.07922 5.13013 9.07922 5.36972V10.0191C9.07922 10.2591 9.20859 10.4816 9.42045 10.606C9.53297 10.672 9.66 10.7052 9.78732 10.7052C9.89977 10.7052 10.0124 10.6794 10.1153 10.6272Z" fill="white"/>
</svg>
